{"title":"Red Dragon 2002 DVDrip English Klam","uid":6840998,"size":1998917085,"categoryP":"video","categoryS":"movies","magnet":"?xt=urn:btih:c1e51f6f0d5a7c1735da2b588fa3f40aa7fa44b2&amp;dn=Red+Dragon+2002+DVDrip+English+Klam&amp;tr=udp%3A%2F%2Ftracker.openbittorrent.com%3A80&amp;tr=udp%3A%2F%2Fopen.demonii.com%3A1337&amp;tr=udp%3A%2F%2Ftracker.coppersurfer.tk%3A6969&amp;tr=udp%3A%2F%2Fexodus.desync.com%3A6969","seeders":1,"leechers":0,"uploader":"Klambake","files":-1,"time":1322163349,"description":"With: Edward Norton, Anthony Hopkins en Ralph Fiennes\n\nDr. Hannibal Lecter is achter zijn faÃƒÂ§ade een moordende psychopaat. Nadat FBI-agent Will Graham erin is geslaagd hem te arresteren, gaat hij na een aantal jaar met tegenzin achter een andere moordende man aan: De seriemoordenaar 'De Tandenfee' slacht hele gezinnen af. Ten einde raad roept hij de hulp in van Dr. Hannibal Lecter, alleen is Hannibal niet erg gewillig om Graham te helpen bij zijn zoektocht.\n\nA retired FBI agent with psychological gifts is assigned to help track down &quot;The Tooth Fairy&quot;, a mysterious serial killer; aiding him is imprisoned criminal genius Hannibal &quot;The Cannibal&quot; Lecter. \n\n------------------ Dutch Friends ------------------\nYou can find my Friends at: http://www.Film-Test.nl \n------ They got my dutch subs ----- and more ------\n\nGeneral:\n\nComplete name                    : Red Dragon\\Red Dragon.avi\nFormat                           : AVI\nFormat/Info                      : Audio Video Interleave\nFile size                        : 1.86 GiB\nDuration                         : 1h 55mn\nOverall bit rate                 : 2 301 Kbps\n\nVideo:\n\nFormat                           : MPEG-4 Visual\nFormat profile                   : Simple@L3\nFormat settings, BVOP            : No\nFormat settings, QPel            : No\nFormat settings, GMC             : No warppoints\nFormat settings, Matrix          : Default (H.263)\nCodec ID                         : XVID\nCodec ID/Hint                    : XviD\nDuration                         : 1h 55mn\nBit rate                         : 1 906 Kbps\nWidth                            : 720 pixels\nHeight                           : 304 pixels\nDisplay aspect ratio             : 2.35:1\nFrame rate                       : 25.000 fps\nColor space                      : YUV\nChroma subsampling               : 4:2:0\nBit depth                        : 8 bits\nScan type                        : Progressive\nCompression mode                 : Lossy\nBits/(Pixel*Frame)               : 0.348\nStream size                      : 1.54 GiB (83%)\nWriting library                  : XviD 1.1.2 (UTC 2006-11-01)\n\nAudio:\n\nFormat                           : AC-3\nFormat/Info                      : Audio Coding 3\nMode extension                   : CM (complete main)\nCodec ID                         : 2000\nDuration                         : 1h 55mn\nBit rate mode                    : Constant\nBit rate                         : 384 Kbps\nChannel(s)                       : 6 channels\nChannel positions                : Front: L C R, Side: L R, LFE\nSampling rate                    : 48.0 KHz\nBit depth                        : 16 bits\nCompression mode                 : Lossy\nStream size                      : 318 MiB (17%)\nAlignment                        : Aligned on interleaves\nInterleave, duration             : 32 ms (0.80 video frame)\nInterleave, preload duration     : 160 ms\n\n","torrent":{"xt":"urn:btih:c1e51f6f0d5a7c1735da2b588fa3f40aa7fa44b2","amp;dn":"Red+Dragon+2002+DVDrip+English+Klam","amp;tr":["udp%3A%2F%2Ftracker.openbittorrent.com%3A80","udp%3A%2F%2Fopen.demonii.com%3A1337","udp%3A%2F%2Ftracker.coppersurfer.tk%3A6969","udp%3A%2F%2Fexodus.desync.com%3A6969"],"infoHash":"c1e51f6f0d5a7c1735da2b588fa3f40aa7fa44b2","infoHashBuffer":{"type":"Buffer","data":[193,229,31,111,13,90,124,23,53,218,43,88,143,163,244,10,167,250,68,178]},"announce":[],"urlList":[]}}